<svg width="24" height="24" viewBox="0 0 24 24" fill="none" xmlns="http://www.w3.org/2000/svg">
<path d="M12 3C12.4332 3 12.8173 3.27938 12.9512 3.69141L14.5225 8.52832H19.6084C20.0416 8.52832 20.4257 8.80677 20.5596 9.21875C20.6934 9.63077 20.5468 10.0823 20.1963 10.3369L16.0811 13.3252L17.6533 18.1631L17.6904 18.3193C17.7471 18.6851 17.5966 19.0585 17.29 19.2812C16.9396 19.5358 16.4647 19.5359 16.1143 19.2812L12 16.291L7.88574 19.2812C7.53528 19.5359 7.06044 19.5358 6.70996 19.2812C6.35947 19.0266 6.21281 18.5751 6.34668 18.1631L7.91797 13.3252L3.80371 10.3369C3.45324 10.0823 3.30656 9.63077 3.44043 9.21875C3.57432 8.80677 3.9584 8.52832 4.3916 8.52832H9.47754L11.0488 3.69141L11.1104 3.54297C11.2794 3.21353 11.6209 3 12 3Z" fill="#5A5285" stroke="#5A5285" stroke-width="2" stroke-linejoin="round"/>
</svg>
