<svg width="24" height="24" viewBox="0 0 24 24" fill="none" xmlns="http://www.w3.org/2000/svg">
<path d="M6.22939 7.21763C5.53883 5.65383 7.76122 3 9.82208 3L12 5.21763L14 3.21763C16.467 3.21763 18.9191 5.77005 18.2286 7.33385M9.82208 9.00548C7.11704 8.50647 5.32399 6.46203 2.22591 3.45653C1.62388 6.55049 1.95912 11.674 6.58175 13.2933L8.95697 14.05C9 15.7176 7.43167 14.4636 7.43167 16.5218C7.43167 18.5799 7.43167 18.3883 7.43167 18.0351M7.43167 18.0351C7.20148 18.7077 6.24178 19.377 4.24447 16.6731M7.43167 18.0351C10.9602 21.3763 12.9674 21.4129 16.5683 18.0351M14.1779 9.00548C18.683 7.95232 19.5688 6.17433 21.7741 3.45653C22.3761 6.55049 22.0408 11.2175 17.4183 13.2933L15.043 14.05C15 15.2176 16.5683 14.4636 16.5683 16.5218V18.0351M16.5683 18.0351C16.7985 18.7077 17.7582 19.377 19.7555 16.6731" stroke="#5A5285" stroke-width="2" stroke-linecap="round" stroke-linejoin="round"/>
</svg>
