<svg width="24" height="24" viewBox="0 0 24 24" fill="none" xmlns="http://www.w3.org/2000/svg">
<path d="M21 12C21 10.3607 20.5617 8.82378 19.796 7.5M21 12C21 13.6393 20.5617 15.1762 19.796 16.5M21 12H3M3 12C3 10.3607 3.43827 8.82378 4.20404 7.5M3 12C3 13.6393 3.43827 15.1762 4.20404 16.5M4.20404 7.5C4.99442 6.13367 6.13367 4.99442 7.5 4.20404C8.12327 3.8435 8.79379 3.55555 9.5 3.35177M4.20404 7.5C10.2989 8.19358 13.7133 8.05458 19.796 7.5M19.796 7.5C19.0056 6.13367 17.8663 4.99442 16.5 4.20404C16.1016 3.97359 15.684 3.77281 15.25 3.6047M4.20404 16.5C4.99442 17.8663 6.13367 19.0056 7.5 19.796C8.12327 20.1565 8.79379 20.4444 9.5 20.6482M4.20404 16.5C10.1246 15.9087 13.5193 15.8426 19.796 16.5M19.796 16.5C19.0056 17.8663 17.8663 19.0056 16.5 19.796C16.1016 20.0264 15.684 20.2272 15.25 20.3953M9.5 20.6482C10.2937 20.8773 11.1325 21 12 21C13.146 21 14.2419 20.7858 15.25 20.3953M9.5 20.6482C8.14562 13.6428 8.47537 9.91653 9.5 3.35177M9.5 3.35177C10.2937 3.12273 11.1325 3 12 3C13.146 3 14.2419 3.21418 15.25 3.6047M15.25 3.6047C15.7239 10.2257 15.8584 13.9201 15.25 20.3953" stroke="#5A5285" stroke-width="2"/>
</svg>
