<svg width="20" height="20" viewBox="0 0 20 20" fill="none" xmlns="http://www.w3.org/2000/svg">
<path d="M10 2C10.2166 2 10.4086 2.13969 10.4756 2.3457L12.0469 7.18262H17.1328C17.3494 7.18262 17.5415 7.32231 17.6084 7.52832C17.6751 7.73422 17.6019 7.95967 17.4268 8.08691L13.3125 11.0762L14.8838 15.9131C14.9507 16.119 14.8773 16.3443 14.7021 16.4717C14.5269 16.599 14.2895 16.599 14.1143 16.4717L10 13.4824L5.88574 16.4717C5.7105 16.599 5.4731 16.599 5.29785 16.4717C5.1227 16.3443 5.04929 16.119 5.11621 15.9131L6.68652 11.0762L2.57324 8.08691C2.39811 7.95967 2.32489 7.73422 2.3916 7.52832C2.45854 7.32231 2.65057 7.18262 2.86719 7.18262H7.95312L9.52441 2.3457L9.55566 2.27148C9.64025 2.10688 9.81053 2 10 2Z" fill="#5A5285" stroke="#5A5285" stroke-linejoin="round"/>
</svg>
