<svg width="24" height="24" viewBox="0 0 24 24" fill="none" xmlns="http://www.w3.org/2000/svg">
<path d="M12 12L16.3311 9.5H7.66891L12 12Z" fill="#5A5285"/>
<path d="M12 12V17L16.3311 9.5L12 12Z" fill="#5A5285"/>
<path d="M12 17V12L7.66891 9.5L12 17Z" fill="#5A5285"/>
<path d="M12 22C17.5228 22 22 17.5228 22 12C22 10.1786 21.513 8.47087 20.6622 7M12 22C6.47715 22 2 17.5228 2 12C2 10.1786 2.48697 8.47087 3.33782 7M12 22V17M12 12V17M12 12L16.3311 9.5M12 12L7.66891 9.5M3.33782 7C5.06687 4.01099 8.29859 2 12 2C15.7014 2 18.9331 4.01099 20.6622 7M3.33782 7L7.66891 9.5M20.6622 7L16.3311 9.5M12 17L16.3311 9.5M12 17L7.66891 9.5M16.3311 9.5H7.66891" stroke="#5A5285" stroke-width="2" stroke-linejoin="round"/>
</svg>
